<svg xmlns="http://www.w3.org/2000/svg" width="250" height="250" preserveAspectRatio="xMidYMid meet" viewBox="0 0 250 250"><path fill="#00A8E5" d="M125 246.9C57.8 246.9 3.1 192.2 3.1 125S57.8 3.1 125 3.1 246.9 57.8 246.9 125 192.2 246.9 125 246.9zm0-233.8C63.3 13.1 13.1 63.3 13.1 125S63.3 236.9 125 236.9 236.9 186.7 236.9 125 186.7 13.1 125 13.1z"/><path fill-rule="evenodd" clip-rule="evenodd" fill="#00A8E5" d="M80.6 77.4c-2.7.3-4.1 1.9-4.7 2.7L63.6 95.2H49.4c-1.6 0-3.3 1.3-3.7 2.9l-1.3 4.8c-.2.6.3.9.9 1.2l8.1 3.7-3.3 4L72 118c5.9 1.7 5.7 5.7 5.7 10.5 0 .3-.2.5-.5.5l-25-3.5c-2.1-.3-3.9-1.7-4.9-3.5v40.5c0 1.7 1.4 3 3 3h24.6c1.7 0 3-1.4 3-3v-5.3c34.4 2.6 61.3 2.6 95.7 0v5.3c0 1.7 1.4 3 3 3h24.6c1.7 0 3-1.4 3-3V122c-1 1.8-2.8 3.2-4.9 3.5l-25 3.5c-.3 0-.5-.2-.5-.5 0-4.8-.2-8.8 5.7-10.5l21.9-6.2-3.3-4 8.1-3.7c.6-.3 1-.5.9-1.2l-1.3-4.8c-.4-1.6-2.1-2.9-3.7-2.9h-14.2l-12.2-15.1c-.7-.8-2.1-2.3-4.7-2.7-32.9-3.7-57.9-3.7-90.4 0zm-16 27.9c-1.3.2-1.4-.7-.9-1.4l15-21.6c.7-.8 1.4-1.3 2.4-1.4 31.5-3.8 57.7-3.8 89.2 0 1.1.1 1.8.6 2.4 1.4l15 21.6c.5.7.3 1.5-.9 1.4-43.1-3.5-79.2-3.5-122.2 0zm25 16.1h72.1c1.3 0 2.6 1.1 2.4 2.4l-.6 3.1c-.2 1.3-1.1 2.3-2.4 2.4-26.1 1.7-44.9 1.5-71 0-1.3-.1-2.1-1.1-2.4-2.4l-.6-3.1c-.1-1.3 1.2-2.4 2.5-2.4z"/></svg>
